<svg xmlns="http://www.w3.org/2000/svg" viewBox="0 0 137.86 30.26"><defs><style>.cls-1{fill:#1d1d1b;}</style></defs><g id="Capa_2" data-name="Capa 2"><g id="Capa_1-2" data-name="Capa 1"><path class="cls-1" d="M0,.12V30.26H30.14V.12ZM29.68.39,25.63,4.45A15.06,15.06,0,0,0,17.9.39Zm-.16.53L27,6a13.57,13.57,0,0,0-1.18-1.35ZM15.2.39A14.75,14.75,0,0,1,25.44,4.64L15.2,14.87ZM.26.82,7.39,15.06H.26ZM.26,30V15.32H7.52L14.85,30ZM14.94,14.87.45.39H14.94Zm.26.38L25.62,4.82a15.31,15.31,0,0,1,1.24,1.43L15.2,29.57ZM29.87,30h-12a15.55,15.55,0,0,0,3-.92A15.07,15.07,0,0,0,29.87,18ZM15.28,30,27,6.49A14.8,14.8,0,0,1,15.28,30ZM29.87,12.36a15.14,15.14,0,0,0-2.7-6.15L29.87.82Z"/><path class="cls-1" d="M29.52.92,27,6a13.57,13.57,0,0,0-1.18-1.35Z"/><path class="cls-1" d="M71.6,16.47c.27,2,2.08,3,4.92,3A6.75,6.75,0,0,0,80.88,18l2.58,2.54a10,10,0,0,1-7,2.64c-5.62,0-9-3-9-8.26,0-4.95,3.37-8.52,8.66-8.52,5.45,0,8.85,3.37,8.22,10.08Zm8.86-3.34C80.19,11,78.54,10,76.23,10a4.39,4.39,0,0,0-4.56,3.17Z"/><polygon class="cls-1" points="97.44 7.59 96.97 6.37 92.57 6.37 95.33 12.85 97.44 7.59"/><polygon class="cls-1" points="106.85 6.37 101.93 19.11 100.78 16.16 98.76 20.91 99.75 23.24 104.11 23.24 111.05 6.37 106.85 6.37"/><path class="cls-1" d="M113.62,6.35V23.28h4V6.35Zm4-2.6H85.46V0h32.19Z"/><path class="cls-1" d="M137.86.08V23.17H134.1l-.27-2.24c-1.25,1.94-3.27,2.24-5.25,2.24-4.79,0-8.39-3.29-8.39-8.64,0-5.62,3.53-8.16,8.29-8.16,1.72,0,4.39.93,5.35,2.61V.08ZM124.22,15a4.68,4.68,0,1,0,9.35,0,4.64,4.64,0,0,0-4.73-4.75A4.49,4.49,0,0,0,124.22,15Z"/><path class="cls-1" d="M64.9.08V23.17H61.13l-.26-2.24c-1.25,1.94-3.27,2.24-5.25,2.24-4.79,0-8.39-3.29-8.39-8.64,0-5.62,3.53-8.16,8.29-8.16,1.72,0,4.39.93,5.35,2.61V.08ZM51.26,15a4.68,4.68,0,1,0,9.35,0,4.64,4.64,0,0,0-4.73-4.75A4.49,4.49,0,0,0,51.26,15Z"/><path class="cls-1" d="M103.63,6.37,93.58,30H89.16l3-7.07L85.49,6.39h3.36l5.56,12.13L99.57,6.37Z"/></g></g></svg>