<?xml version="1.0" encoding="utf-8"?>
<!-- Generator: Adobe Illustrator 28.0.0, SVG Export Plug-In . SVG Version: 6.00 Build 0)  -->
<svg version="1.1" id="Capa_1" xmlns="http://www.w3.org/2000/svg" xmlns:xlink="http://www.w3.org/1999/xlink" x="0px" y="0px"
	 viewBox="0 0 90.6 30.3" style="enable-background:new 0 0 90.6 30.3;" xml:space="preserve">
<style type="text/css">
	.st0{fill:#1D1D1B;}
</style>
<g id="Capa_2_00000148649638875762539690000005675570661269029785_">
	<g id="Capa_1-2">
		<path class="st0" d="M24.4,16.5c0.3,2,2.1,3,4.9,3c1.6,0,3.1-0.5,4.4-1.5l2.6,2.5c-1.9,1.8-4.4,2.7-7,2.6c-5.6,0-9-3-9-8.3
			c0-4.9,3.4-8.5,8.7-8.5c5.4,0,8.8,3.4,8.2,10.1L24.4,16.5z M33.2,13.1C33,11,31.3,10,29,10c-2.1-0.2-4,1.2-4.6,3.2L33.2,13.1z"/>
		<polygon class="st0" points="50.2,7.6 49.7,6.4 45.3,6.4 48.1,12.9 		"/>
		<polygon class="st0" points="59.6,6.4 54.7,19.1 53.5,16.2 51.5,20.9 52.5,23.2 56.9,23.2 63.8,6.4 		"/>
		<path class="st0" d="M66.4,6.3v16.9h4V6.3H66.4z M70.4,3.8H38.2V0h32.2L70.4,3.8z"/>
		<path class="st0" d="M90.6,0.1v23.1h-3.8l-0.3-2.2c-1.2,1.9-3.3,2.2-5.2,2.2c-4.8,0-8.4-3.3-8.4-8.6c0-5.6,3.5-8.2,8.3-8.2
			c1.7,0,4.4,0.9,5.4,2.6V0.1H90.6z M77,15c-0.1,2.6,1.9,4.8,4.5,4.9c2.6,0.1,4.8-1.9,4.9-4.5c0-0.1,0-0.3,0-0.4
			c0.1-2.6-2-4.7-4.5-4.7c-0.1,0-0.1,0-0.2,0c-2.5-0.1-4.5,1.9-4.6,4.4C77,14.7,77,14.9,77,15z"/>
		<path class="st0" d="M17.7,0.1v23.1h-3.8l-0.3-2.2c-1.2,1.9-3.3,2.2-5.2,2.2c-4.8,0-8.4-3.3-8.4-8.6c0-5.6,3.5-8.2,8.3-8.2
			c1.7,0,4.4,0.9,5.3,2.6V0.1H17.7z M4,15c-0.1,2.6,1.9,4.8,4.5,4.9s4.8-1.9,4.9-4.5c0-0.1,0-0.3,0-0.4c0.1-2.6-2-4.7-4.5-4.7
			c-0.1,0-0.1,0-0.2,0c-2.5-0.1-4.5,1.9-4.6,4.4C4,14.7,4,14.9,4,15z"/>
		<path class="st0" d="M56.4,6.4L46.3,30h-4.4l3-7.1L38.3,6.4h3.4l5.6,12.1l5.2-12.2H56.4z"/>
	</g>
</g>
</svg>
